<svg width="138" height="37" viewBox="0 0 138 37" fill="none" xmlns="http://www.w3.org/2000/svg">
<g clip-path="url(#clip0_2_571)">
<path d="M0 10.0997C0.0232215 10.0557 0.0404503 10.0088 0.0512282 9.96025C0.0600607 9.85784 0.0512282 9.75543 0.0512282 9.65302C0.0512282 8.57418 0.0688931 7.49711 0.0671266 6.41828C0.074795 6.22626 0.103224 6.03563 0.151918 5.84973C0.482252 4.36302 1.13055 3.04405 2.23814 1.9758C3.16508 1.09156 4.34184 0.513928 5.60861 0.321355C5.7106 0.308374 5.81319 0.300713 5.91598 0.298401C5.91598 0.439656 5.92834 0.579145 5.93011 0.718635C5.93011 1.72684 5.94247 2.73329 5.95837 3.73973C5.95837 4.15996 5.9937 4.58019 6.01313 4.99866C6.01313 5.12756 5.99547 5.25469 5.99723 5.38182C6.03374 8.61656 6.07261 11.8537 6.11382 15.0931C6.13855 17.0542 6.16564 19.0171 6.19508 20.9817C6.21981 22.7791 6.24395 24.5754 6.26751 26.3706C6.29106 28.0774 6.31461 29.7842 6.33817 31.4911C6.33817 31.8265 6.3152 31.8354 6.6738 31.8301C8.40849 31.8077 10.1432 31.7853 11.8779 31.763L22.3602 31.6447L28.6419 31.567L35.0012 31.4893C35.1426 31.4893 35.2839 31.4893 35.4252 31.4734C35.5206 31.4734 35.5577 31.4116 35.5559 31.3215C35.5418 30.7707 35.5271 30.2192 35.5118 29.6671C35.5118 29.5135 35.4941 29.3599 35.4888 29.2063C35.4511 27.9609 35.414 26.7166 35.3775 25.4736C35.328 23.9339 35.2774 22.3948 35.2256 20.8563C35.2256 20.8316 35.2256 20.8051 35.2256 20.7804C35.2132 20.5473 35.2044 20.535 34.9853 20.5297C34.6903 20.5297 34.3936 20.5297 34.1021 20.5191C32.1495 20.5026 30.197 20.4867 28.2444 20.4714L21.3056 20.4061C21.1785 20.4061 21.0495 20.4061 20.9205 20.4061C20.7916 20.4061 20.7439 20.3707 20.7439 20.2136C20.7439 19.841 20.7439 19.4685 20.7439 19.0977V16.4633C20.7439 16.3732 20.7439 16.2867 20.7439 16.1931C20.7439 16.0995 20.7845 16.0483 20.8799 16.0448H24.8104C30.0804 16.0448 35.3486 16.0448 40.6151 16.0448C41.1451 16.0448 41.0886 15.983 41.0974 16.5092C41.1304 18.5892 41.1639 20.668 41.1981 22.7456C41.2205 24.1581 41.2446 25.5707 41.2705 26.9832C41.2917 28.1504 41.3111 29.3193 41.3359 30.4864C41.3439 30.7684 41.3154 31.0503 41.2511 31.3251C41.0394 32.2654 40.6754 33.1648 40.1735 33.9877C39.768 34.6606 39.2265 35.2415 38.5837 35.6934C37.8569 36.1858 37.0116 36.4748 36.1353 36.5303C34.9553 36.6168 33.7735 36.601 32.5917 36.6257C29.4439 36.691 26.296 36.6628 23.1481 36.6628C21.4399 36.6628 19.7317 36.6522 18.0253 36.6398C14.6595 36.6174 11.2938 36.5915 7.92801 36.5621C7.23378 36.5621 6.53955 36.5392 5.84708 36.5339C5.64142 36.5343 5.43676 36.5052 5.23941 36.4473C3.90924 36.0659 2.70803 35.455 1.72939 34.4556C0.796059 33.5172 0.231734 32.2743 0.139553 30.9543C0.0953905 30.4246 0.0476952 29.9072 0.0547612 29.3811C0.0591907 29.3494 0.0565794 29.3172 0.0471137 29.2867C0.0376479 29.2561 0.0215609 29.2281 0 29.2045L0 10.0997Z" fill="#1A4897"/>
<path d="M118.15 36.1154C118.032 36.1154 117.973 36.1278 117.91 36.1278L114.711 36.1419H114.518C114.499 36.1427 114.48 36.1394 114.462 36.1323C114.444 36.1251 114.428 36.1142 114.415 36.1003C114.402 36.0864 114.392 36.0699 114.385 36.0518C114.379 36.0337 114.377 36.0144 114.378 35.9953C114.378 35.8911 114.378 35.7887 114.378 35.6863L114.338 33.7246C114.338 33.6752 114.338 33.6258 114.338 33.5799C114.274 33.5375 114.237 33.5675 114.205 33.6099C113.283 34.8459 112.018 35.568 110.591 36.0465C109.749 36.3224 108.881 36.5105 108 36.608C107.171 36.713 106.335 36.7555 105.5 36.7351C104.587 36.7303 103.679 36.6056 102.799 36.3644C102.281 36.2131 101.787 35.9908 101.329 35.704C100.111 34.9236 99.4234 33.797 99.1637 32.3916C98.9871 31.4469 99.116 30.5235 99.3563 29.6106C99.752 28.0507 100.713 26.6934 102.054 25.802C103.049 25.1374 104.164 24.671 105.336 24.4283C105.839 24.3258 106.348 24.2539 106.86 24.2129C107.705 24.1299 108.542 24.001 109.378 23.8597C110.747 23.6373 112.111 23.3889 113.469 23.1146L113.656 23.0758C113.699 23.071 113.739 23.0503 113.769 23.0177C113.798 22.9851 113.813 22.9429 113.813 22.8992C113.849 22.1806 113.866 21.4655 113.675 20.7592C113.57 20.3406 113.378 19.9488 113.111 19.6095C112.844 19.2703 112.508 18.9912 112.126 18.7905C111.578 18.5085 110.991 18.3097 110.384 18.2007C109.817 18.0902 109.243 18.0165 108.666 17.98C108.055 17.9343 107.442 18.012 106.862 18.2086C106.282 18.4052 105.748 18.7166 105.292 19.1242C104.552 19.7652 103.951 20.5505 103.525 21.4319C103.349 21.7957 103.444 21.748 103.013 21.7586C102.075 21.7833 101.139 21.8027 100.201 21.8221C100.109 21.8408 100.013 21.8264 99.9304 21.7815C99.9313 21.7222 99.9378 21.6631 99.9498 21.605C100.248 20.4324 100.776 19.3305 101.503 18.3632C102.391 17.2193 103.57 16.335 104.917 15.8029C105.98 15.3807 107.099 15.116 108.238 15.0172C108.954 14.9478 109.675 14.9295 110.393 14.9624C111.563 14.9926 112.725 15.1706 113.85 15.4922C114.569 15.6954 115.238 16.044 115.816 16.5163C116.329 16.9279 116.746 17.447 117.036 18.0371C117.326 18.6271 117.483 19.2737 117.496 19.9311C117.548 21.4584 117.523 22.9857 117.496 24.5113C117.447 27.3593 117.387 30.2074 117.332 33.0555C117.332 33.3503 117.332 33.6452 117.332 33.9383C117.342 34.597 117.549 35.2377 117.926 35.7781C117.961 35.8311 118.002 35.8806 118.039 35.9335C118.076 35.9865 118.088 36.02 118.15 36.1154ZM113.426 26.0986C113.214 26.1318 113.007 26.1911 112.81 26.2752C111.097 26.7691 109.348 27.1298 107.579 27.354C107.049 27.43 106.509 27.4935 105.979 27.5889C105.394 27.6843 104.834 27.8975 104.334 28.2157C104.01 28.414 103.73 28.6771 103.513 28.9885C103.295 29.3 103.144 29.653 103.069 30.0255C102.932 30.7318 102.979 31.4615 103.205 32.1444C103.387 32.7404 103.788 33.2453 104.327 33.5569C104.715 33.7857 105.138 33.9497 105.58 34.0425C106.51 34.2307 107.465 34.2624 108.406 34.1361C109.558 33.9947 110.653 33.5573 111.586 32.8665C112.041 32.551 112.433 32.1534 112.743 31.6941C113.004 31.3104 113.158 30.8633 113.186 30.3999C113.209 29.9779 113.246 29.5559 113.273 29.1321C113.314 28.4541 113.352 27.7755 113.387 27.0963C113.409 26.7749 113.409 26.4429 113.426 26.0986Z" fill="#1A4897"/>
<path d="M63.841 26.7166C63.6877 26.7526 63.5295 26.7628 63.3728 26.7466H48.9194C48.3312 26.7466 48.3895 26.669 48.4319 27.2534C48.4878 28.0606 48.6463 28.8575 48.9035 29.6247C49.5854 31.6252 50.9438 32.9354 52.9523 33.5799C53.5281 33.7612 54.1195 33.8889 54.7188 33.9612C55.528 34.0714 56.3508 33.9093 57.0576 33.5004C57.5051 33.2465 57.9168 32.9342 58.2818 32.5717C59.0256 31.8209 59.6477 30.9589 60.126 30.0167C60.3027 29.6953 60.2938 29.6971 60.656 29.766L63.6431 30.3434C63.6802 30.3434 63.7191 30.3539 63.7562 30.3628C63.7721 30.3642 63.7876 30.3689 63.8015 30.3768C63.8155 30.3846 63.8276 30.3953 63.8371 30.4081C63.8466 30.421 63.8533 30.4357 63.8567 30.4513C63.8601 30.4669 63.8602 30.4831 63.8569 30.4987C63.8518 30.5369 63.8441 30.5746 63.8339 30.6117C63.4259 32.0255 62.6761 33.3171 61.6505 34.3727C60.5758 35.4333 59.244 36.1969 57.7854 36.5886C56.5475 36.9441 55.2552 37.0715 53.9716 36.9647C52.0751 36.8457 50.2527 36.1844 48.7216 35.0595C47.3036 33.997 46.2372 32.5338 45.6602 30.8589C45.3491 29.9889 45.1358 29.087 45.0243 28.1698C44.9075 27.2654 44.8638 26.3532 44.8936 25.4418C44.9175 24.0678 45.1559 22.7059 45.6002 21.4054C46.5665 18.7004 48.4018 16.8252 51.0516 15.7146C52.0861 15.29 53.1747 15.0112 54.286 14.8865C54.6963 14.8534 55.1093 14.8753 55.5137 14.9518C56.5466 15.0873 57.5528 15.3797 58.4973 15.8188C60.0647 16.5597 61.3665 17.7641 62.2264 19.269C62.8275 20.3143 63.2642 21.4458 63.5212 22.6238C63.765 23.7256 63.8917 24.8501 63.8993 25.9786C63.9199 26.2261 63.9002 26.4754 63.841 26.7166ZM60.4634 23.9957C60.4634 23.9357 60.4634 23.8986 60.4634 23.8615C60.4577 23.7975 60.4483 23.7338 60.4352 23.6708C60.2299 22.717 59.8885 21.7976 59.4212 20.9411C59.1191 20.3881 58.7389 19.8814 58.2924 19.4367C57.8495 18.9873 57.3199 18.6326 56.7356 18.394C56.1514 18.1554 55.5247 18.038 54.8937 18.0489C53.6928 18.045 52.5123 18.3587 51.472 18.9582C50.3026 19.6093 49.4271 20.6835 49.0254 21.9599C48.8363 22.5694 48.7218 23.1997 48.6845 23.8368C48.6721 23.9851 48.7039 24.0134 48.8488 24.0257C48.9141 24.0257 48.9777 24.0257 49.0413 24.0257H60.0978C60.2204 24.0437 60.3454 24.0334 60.4634 23.9957Z" fill="#1A4897"/>
<path d="M6.00606 4.99868C5.98663 4.58022 5.9566 4.15998 5.9513 3.73975C5.9354 2.73331 5.93187 1.72686 5.92304 0.718655C5.92304 0.579165 5.92304 0.439676 5.90891 0.298421C6.04105 0.247742 6.18417 0.232524 6.32403 0.254279C8.3025 0.238388 10.281 0.24545 12.2594 0.206605C14.9957 0.1554 17.7356 0.16776 20.4701 0.130681C23.0721 0.0953669 25.6671 0.0936012 28.2638 0.0476933C30.5249 0.00884814 32.7861 0.00355107 35.0472 1.96978e-05C35.8737 -0.0149515 36.6942 0.144293 37.4551 0.467379C38.216 0.790466 38.9003 1.27015 39.4634 1.87518C40.1155 2.57285 40.5989 3.41063 40.8766 4.32419C41.0771 4.96049 41.2132 5.61532 41.2829 6.27881C41.3558 7.07119 41.3724 7.86776 41.3323 8.66249C41.3323 8.94323 41.3182 8.94676 41.0338 9.01562L37.4655 9.87022L35.699 10.2922C35.6248 10.3099 35.5488 10.3258 35.4729 10.3364C35.4572 10.3404 35.4409 10.3408 35.425 10.3376C35.4092 10.3343 35.3943 10.3275 35.3816 10.3176C35.3688 10.3077 35.3584 10.295 35.3513 10.2805C35.3441 10.266 35.3404 10.2501 35.3404 10.2339C35.3342 10.1446 35.3342 10.0549 35.3404 9.96556C35.3987 8.60598 35.3775 7.24464 35.4005 5.88506C35.4005 5.64139 35.4005 5.39773 35.4005 5.15406C35.4028 5.13493 35.4009 5.11552 35.395 5.09719C35.389 5.07885 35.3792 5.06204 35.366 5.04791C35.3529 5.03379 35.3369 5.0227 35.319 5.01542C35.3012 5.00813 35.2819 5.00483 35.2627 5.00575C35.1214 5.00575 34.98 5.00575 34.8387 5.00575H6.51304L6.00606 4.99868Z" fill="#C99933"/>
<path d="M134.631 4.48133L133.631 5.54074C133.368 5.82325 133.102 6.10576 132.849 6.3918C132.808 6.44121 132.756 6.48002 132.697 6.50493C132.638 6.52983 132.574 6.54009 132.51 6.53482C132.156 6.51893 131.791 6.50128 131.432 6.49598C130.25 6.48009 129.067 6.48538 127.887 6.45007C126.781 6.41652 125.677 6.40593 124.573 6.3918H124.273C124.241 6.5154 124.338 6.52599 124.396 6.56837C125.355 7.164 126.316 7.75727 127.279 8.34818L133.049 11.9078C133.114 11.9484 133.174 11.9943 133.262 12.0561C133.17 12.104 133.064 12.1196 132.962 12.1003H126.988C125.497 12.1003 124.008 12.1003 122.517 12.1003C122.287 12.1055 122.062 12.0313 121.881 11.8902C117.549 8.72251 113.216 5.55722 108.879 2.39428C108.516 2.12943 108.155 1.86458 107.789 1.59972C107.636 1.48849 107.613 1.48849 107.45 1.59972C106.791 2.09059 106.133 2.58321 105.477 3.07761L99.0118 7.94561L93.163 12.3457C92.8397 12.5894 92.8732 12.5788 92.6047 12.3086C92.4281 12.1321 92.2673 11.9555 92.1031 11.7895C92.171 11.6872 92.2641 11.6039 92.3733 11.5476C93.6299 10.6295 94.8859 9.71424 96.1413 8.80197C96.1819 8.77195 96.226 8.7437 96.2667 8.71192C96.3391 8.65541 96.3974 8.60598 96.3462 8.49121C96.3211 8.40468 96.3139 8.31398 96.325 8.22459C96.325 6.7108 96.325 5.19643 96.325 3.68147C96.325 3.32833 96.325 3.32833 96.6606 3.32833H98.4271C98.5031 3.32833 98.5808 3.32833 98.6567 3.33893C98.6825 3.34112 98.7066 3.35281 98.7242 3.37174C98.7418 3.39067 98.7518 3.41548 98.7521 3.44134C98.7521 3.54375 98.761 3.64616 98.761 3.74857V6.78555C98.9005 6.82793 98.9676 6.72905 99.0454 6.67431C99.752 6.16403 100.459 5.64668 101.165 5.13287L106.641 1.14241C106.684 1.11239 106.728 1.08591 106.767 1.05236C106.81 1.01408 106.863 0.988519 106.919 0.978541C106.976 0.968564 107.035 0.974559 107.088 0.995859C107.604 1.14771 108.125 1.28896 108.643 1.43375L119.538 4.47956C120.095 4.63494 120.651 4.78503 121.204 4.951C121.376 5.00053 121.557 5.01376 121.734 4.98985C122.441 4.91804 123.143 4.84447 123.84 4.76913C124.44 4.70557 125.039 4.63494 125.638 4.57138C126.237 4.50781 126.875 4.45308 127.477 4.39481C128.079 4.33654 128.703 4.26238 129.314 4.19705L130.235 4.09994L133.144 3.79801C133.86 3.72385 134.575 3.65087 135.29 3.57906C135.32 3.57906 135.354 3.60908 135.387 3.62497L134.631 4.48133Z" fill="#C99933"/>
<path d="M86.6216 25.7949C86.6428 23.6761 86.6658 21.3648 86.6905 19.0553C86.6905 18.8487 86.6993 18.6439 86.6993 18.4391C86.6993 18.3208 86.6552 18.2766 86.5368 18.2749C86.1129 18.2749 85.6889 18.2749 85.2649 18.2749C85.0212 18.2749 84.7774 18.2749 84.5336 18.2749C84.3216 18.2749 84.3022 18.2572 84.3022 18.0665C84.3022 17.2967 84.3022 16.5263 84.3022 15.7552C84.3022 15.5787 84.3199 15.5487 84.4965 15.5469C85.0883 15.5469 85.6783 15.5469 86.263 15.5469C86.3778 15.5469 86.4944 15.5469 86.6163 15.5469C86.6355 15.5478 86.6547 15.5446 86.6725 15.5373C86.6903 15.53 86.7062 15.5188 86.7192 15.5047C86.7322 15.4905 86.7419 15.4737 86.7476 15.4553C86.7533 15.437 86.755 15.4176 86.7523 15.3986C86.7523 15.3085 86.7523 15.222 86.7523 15.1284L86.7099 10.8908C86.7126 10.8526 86.7126 10.8142 86.7099 10.776C86.6952 10.7021 86.7074 10.6253 86.7444 10.5596C86.7813 10.4939 86.8405 10.4435 86.9113 10.4176C88.0018 9.76308 89.0888 9.10448 90.1723 8.44176C90.2288 8.40842 90.2879 8.37949 90.3489 8.35524C90.3575 8.35127 90.367 8.3494 90.3765 8.34978C90.3859 8.35016 90.3952 8.35279 90.4035 8.35744C90.4118 8.36209 90.4188 8.36864 90.4241 8.37654C90.4293 8.38445 90.4326 8.39348 90.4337 8.40291C90.4337 8.51768 90.4337 8.63245 90.4337 8.75605C90.4337 10.8466 90.4337 12.9378 90.4337 15.0295C90.4337 15.5857 90.3507 15.5592 90.9407 15.5592L93.4456 15.5716C93.5357 15.5716 93.6222 15.5716 93.7158 15.5716C93.7318 15.5711 93.7476 15.5739 93.7624 15.5799C93.7771 15.5859 93.7904 15.5949 93.8014 15.6064C93.8124 15.6179 93.8209 15.6316 93.8262 15.6466C93.8316 15.6616 93.8337 15.6776 93.8324 15.6934C93.8324 16.528 93.8324 17.362 93.8324 18.1954C93.8339 18.2115 93.832 18.2277 93.8268 18.243C93.8216 18.2583 93.8132 18.2723 93.8022 18.2842C93.7912 18.296 93.7778 18.3054 93.7629 18.3117C93.748 18.318 93.732 18.3211 93.7158 18.3208C93.6134 18.3208 93.5109 18.3208 93.4085 18.3208H90.704C90.6015 18.3208 90.4991 18.3208 90.3966 18.3208C90.3808 18.3205 90.365 18.3235 90.3504 18.3296C90.3358 18.3357 90.3226 18.3448 90.3116 18.3562C90.3007 18.3676 90.2922 18.3812 90.2868 18.3961C90.2813 18.411 90.279 18.4268 90.28 18.4426C90.28 18.4815 90.28 18.5203 90.28 18.5574V31.3392C90.2659 31.6361 90.295 31.9335 90.3666 32.222C90.3966 32.3192 90.4231 32.4198 90.462 32.5134C90.5188 32.6858 90.6294 32.8356 90.7775 32.9407C90.9256 33.0459 91.1035 33.1009 91.2852 33.0978C91.6579 33.0978 92.0306 33.1173 92.4033 33.1296C92.8644 33.1437 93.3272 33.1579 93.79 33.1791C94.0126 33.1879 94.0126 33.1932 94.0356 33.4262C94.0356 33.478 94.0391 33.5292 94.0462 33.5799L94.1628 36.2725C94.1672 36.336 94.1672 36.3997 94.1628 36.4632C94.1616 36.4891 94.1512 36.5137 94.1333 36.5326C94.1155 36.5514 94.0914 36.5631 94.0656 36.5656C93.9896 36.5745 93.9119 36.5762 93.8342 36.578C92.5376 36.6115 91.241 36.638 89.9479 36.6804C89.6785 36.6882 89.4106 36.6364 89.1636 36.5286C88.7351 36.354 88.3313 36.1243 87.9624 35.8452C87.5749 35.5663 87.2579 35.2008 87.0367 34.7777C86.8156 34.3547 86.6964 33.8858 86.6887 33.4086C86.6675 32.7023 86.6357 31.996 86.6322 31.2898C86.6163 29.5241 86.6216 27.7531 86.6216 25.7949Z" fill="#1A4897"/>
<path d="M76.0227 8.37113V8.79313C76.0227 10.8978 76.0227 13.0025 76.0227 15.1072C76.0227 15.5592 75.9644 15.5434 76.459 15.5451L79.0028 15.5575H79.273C79.3614 15.5575 79.4196 15.5928 79.4214 15.6899C79.4214 15.7411 79.4214 15.7923 79.4214 15.8435V18.0383C79.4214 18.0895 79.4214 18.1407 79.4214 18.1919C79.4217 18.2079 79.4187 18.2237 79.4126 18.2385C79.4065 18.2533 79.3975 18.2667 79.3861 18.278C79.3748 18.2892 79.3612 18.298 79.3463 18.3038C79.3314 18.3097 79.3155 18.3124 79.2995 18.312C79.1971 18.312 79.0946 18.312 78.9904 18.312H76.3318C76.2417 18.312 76.1552 18.312 76.0615 18.312C75.9043 18.312 75.8849 18.342 75.8725 18.4885C75.8725 18.6051 75.8725 18.7198 75.8725 18.8417V27.9632C75.8725 29.0932 75.8725 30.2227 75.8725 31.3516C75.8647 31.621 75.8909 31.8903 75.9503 32.1532C75.9737 32.253 76.0026 32.3514 76.0368 32.4481C76.0886 32.6428 76.2055 32.814 76.3681 32.9332C76.5307 33.0523 76.7292 33.1123 76.9307 33.1031C77.4058 33.1031 77.881 33.1225 78.3562 33.1367C78.7095 33.149 79.0752 33.1632 79.4338 33.1808C79.6104 33.1808 79.6228 33.2144 79.6369 33.3909C79.6369 33.4157 79.6369 33.4421 79.6369 33.4669L79.7747 36.3502C79.7835 36.5374 79.7553 36.5639 79.5557 36.5745C79.5168 36.5745 79.4779 36.5745 79.4408 36.5745C78.1301 36.608 76.8211 36.638 75.5104 36.6751C75.2682 36.6828 75.0272 36.6383 74.8038 36.5445C74.1662 36.3006 73.5889 35.9217 73.1115 35.4338C72.6432 34.9495 72.3588 34.3168 72.3078 33.6452C72.2406 32.8383 72.2442 32.0296 72.2371 31.2227C72.2035 27.4494 72.2371 23.6779 72.2866 19.9064C72.2866 19.4826 72.3042 19.0588 72.3131 18.6368C72.3131 18.5592 72.3131 18.4815 72.3131 18.4055C72.3146 18.3864 72.3118 18.3671 72.3048 18.3491C72.2979 18.3312 72.2869 18.315 72.2728 18.302C72.2587 18.2889 72.2418 18.2791 72.2233 18.2735C72.2049 18.2679 72.1855 18.2666 72.1664 18.2696H71.8962H70.3063H70.0378C70.022 18.2712 70.0059 18.2693 69.9909 18.264C69.9758 18.2588 69.9621 18.2503 69.9507 18.2392C69.9392 18.2281 69.9304 18.2146 69.9247 18.1998C69.919 18.1849 69.9166 18.1689 69.9177 18.153C69.9177 18.1018 69.9177 18.0489 69.9177 17.9977C69.9177 17.2667 69.9177 16.5357 69.9177 15.8047C69.9038 15.7167 69.9247 15.6268 69.976 15.5539C70.1438 15.5539 70.3293 15.5381 70.5254 15.5381C71.0005 15.5381 71.4757 15.5381 71.9509 15.5381C72.041 15.5381 72.1276 15.5381 72.2212 15.5381C72.2405 15.5385 72.2597 15.5348 72.2774 15.527C72.2951 15.5193 72.3109 15.5078 72.3237 15.4934C72.3365 15.4789 72.3459 15.4618 72.3514 15.4433C72.3569 15.4248 72.3583 15.4053 72.3555 15.3862C72.3555 15.2838 72.3555 15.1814 72.3555 15.079C72.3437 13.6923 72.3319 12.3151 72.3201 10.9473C72.3201 10.8713 72.3201 10.7937 72.3201 10.716C72.3135 10.6591 72.3254 10.6016 72.354 10.552C72.3827 10.5023 72.4265 10.4633 72.4791 10.4405C73.6014 9.76367 74.7202 9.08506 75.8354 8.40468C75.8602 8.38181 75.891 8.3665 75.9242 8.36056C75.9573 8.35461 75.9915 8.35828 76.0227 8.37113Z" fill="#1A4897"/>
<path d="M93.2831 13.4192C93.7041 13.2144 94.1501 13.0654 94.6097 12.976C95.7843 12.7008 96.9724 12.4863 98.1692 12.3333C99.0477 12.2156 99.9309 12.1244 100.819 12.0597C102.343 11.9484 103.871 11.8831 105.401 11.8831C106.931 11.8831 108.431 11.9361 109.945 12.012C111.407 12.0844 112.866 12.2168 114.322 12.3545C115.255 12.4428 116.184 12.5823 117.113 12.6953C118.337 12.8436 119.549 13.0661 120.764 13.2674C120.941 13.2956 121.118 13.3292 121.294 13.3627C121.294 13.3627 121.294 13.3839 121.294 13.391C120.171 13.3398 119.047 13.2586 117.926 13.172C117.396 13.1314 116.848 13.112 116.309 13.0802C115.809 13.052 115.309 13.0167 114.81 12.9902C113.796 12.9372 112.783 12.8913 111.769 12.8348C109.59 12.7112 107.406 12.6671 105.223 12.6459C103.463 12.6294 101.704 12.6623 99.9445 12.7447C98.9959 12.7889 98.0473 12.8489 97.1004 12.9319C95.9628 13.0308 94.827 13.1579 93.7017 13.3627C93.5622 13.3963 93.4226 13.4069 93.2831 13.4192Z" fill="#1A4897"/>
<path d="M134.631 4.48134L135.396 3.62851C135.477 3.65499 135.506 3.73092 135.545 3.79448C136.332 5.11404 137.121 6.43301 137.91 7.75139C137.954 7.82379 138.023 7.89265 137.993 8.00742C137.862 8.05092 137.724 8.07066 137.587 8.06568C137.203 8.09217 136.82 8.10983 136.435 8.13455C136.226 8.14867 136.216 8.14691 136.124 7.93502C135.729 7.01687 135.336 6.0993 134.942 5.18232C134.842 4.94395 134.736 4.71441 134.631 4.48134Z" fill="#1A4897"/>
<path d="M108.238 8.93085C107.97 8.93085 107.708 8.93085 107.433 8.93085C107.413 8.93331 107.394 8.93143 107.376 8.92537C107.357 8.91931 107.341 8.90922 107.327 8.89583C107.313 8.88244 107.302 8.8661 107.295 8.84802C107.289 8.82994 107.286 8.81058 107.288 8.79136C107.288 8.33228 107.288 7.87143 107.288 7.41236C107.287 7.39317 107.29 7.374 107.297 7.35623C107.305 7.33845 107.316 7.3225 107.33 7.30952C107.344 7.29654 107.361 7.28684 107.379 7.28111C107.398 7.27539 107.417 7.27378 107.436 7.2764C107.987 7.2764 108.537 7.2764 109.086 7.2764C109.102 7.27562 109.118 7.27825 109.133 7.28413C109.148 7.29 109.162 7.29898 109.173 7.31048C109.185 7.32197 109.194 7.33573 109.199 7.35085C109.205 7.36597 109.207 7.38212 109.206 7.39823C109.206 7.53772 109.206 7.67721 109.206 7.81846C109.206 8.12569 109.206 8.43116 109.206 8.73839C109.206 8.91496 109.187 8.92908 109 8.93085C108.745 8.93085 108.489 8.93085 108.233 8.93085H108.238Z" fill="#1A4897"/>
<path d="M108.259 5.29708H109.068C109.088 5.29451 109.107 5.29638 109.126 5.30255C109.144 5.30871 109.161 5.319 109.175 5.33264C109.188 5.34627 109.199 5.36289 109.205 5.38121C109.212 5.39953 109.214 5.41907 109.212 5.43833C109.212 5.89859 109.212 6.36002 109.212 6.82263C109.213 6.8385 109.211 6.85448 109.205 6.86944C109.2 6.8844 109.191 6.89799 109.18 6.90926C109.169 6.92052 109.155 6.92919 109.14 6.93466C109.125 6.94013 109.109 6.94227 109.093 6.94093C108.989 6.94093 108.886 6.94093 108.784 6.94093H107.436C107.417 6.94369 107.398 6.94209 107.379 6.93625C107.361 6.93041 107.344 6.92049 107.33 6.90723C107.316 6.89397 107.306 6.87771 107.299 6.8597C107.292 6.84168 107.29 6.82236 107.291 6.80321C107.291 6.34236 107.291 5.87975 107.291 5.41891C107.291 5.4027 107.294 5.38656 107.3 5.37152C107.306 5.35648 107.315 5.34287 107.327 5.33157C107.338 5.32027 107.352 5.31152 107.367 5.30588C107.383 5.30025 107.399 5.29785 107.415 5.29884C107.698 5.29884 107.978 5.29884 108.261 5.29884L108.259 5.29708Z" fill="#1A4897"/>
<path d="M105.998 7.27464C106.254 7.27464 106.512 7.27464 106.768 7.27464C106.899 7.27464 106.945 7.30995 106.945 7.42826C106.945 7.87674 106.945 8.32699 106.945 8.77548C106.945 8.89554 106.908 8.92909 106.768 8.92909C106.242 8.92909 105.716 8.92909 105.189 8.92909C105.057 8.92909 105.013 8.89731 105.013 8.77724C105.013 8.32699 105.013 7.87851 105.013 7.42826C105.013 7.30995 105.051 7.27641 105.189 7.27464C105.459 7.27111 105.728 7.27464 105.998 7.27464Z" fill="#1A4897"/>
<path d="M105.989 6.9374H105.145C105.129 6.93874 105.113 6.9366 105.098 6.93113C105.083 6.92566 105.07 6.91699 105.058 6.90572C105.047 6.89446 105.038 6.88087 105.033 6.86591C105.027 6.85094 105.025 6.83497 105.027 6.81909C105.027 6.35825 105.027 5.89917 105.027 5.43833C105.027 5.34298 105.083 5.30237 105.172 5.30237C105.723 5.30237 106.274 5.30237 106.823 5.30237C106.839 5.3013 106.856 5.30374 106.871 5.30951C106.886 5.31528 106.9 5.32425 106.911 5.33581C106.923 5.34737 106.931 5.36125 106.937 5.3765C106.942 5.39175 106.945 5.40802 106.943 5.4242C106.943 5.88505 106.943 6.34412 106.943 6.80497C106.943 6.90032 106.885 6.93916 106.797 6.93916H105.989V6.9374Z" fill="#1A4897"/>
<path d="M133.209 8.45589H132.939C132.708 8.45589 132.693 8.43824 132.69 8.22282C132.69 8.04626 132.69 7.86969 132.69 7.69312C132.69 7.59777 132.746 7.55716 132.837 7.55716C133.08 7.55716 133.324 7.55716 133.568 7.55716C133.7 7.55716 133.745 7.59247 133.745 7.70724C133.745 7.91206 133.745 8.11865 133.745 8.32347C133.746 8.34278 133.743 8.36217 133.736 8.38024C133.729 8.39831 133.718 8.41461 133.704 8.42796C133.69 8.44131 133.673 8.45137 133.655 8.45742C133.637 8.46348 133.617 8.46537 133.598 8.46296H133.213L133.209 8.45589Z" fill="#1A4897"/>
<path d="M134.497 8.63247C135.085 8.63247 134.999 8.55655 135.008 9.13746C135.008 9.22574 135.008 9.31403 135.008 9.40584C135.009 9.42503 135.005 9.4442 134.998 9.46197C134.991 9.47975 134.979 9.4957 134.965 9.50868C134.951 9.52166 134.934 9.53136 134.916 9.53709C134.898 9.54281 134.878 9.54442 134.859 9.5418H134.093C134.073 9.54368 134.054 9.54129 134.035 9.5348C134.017 9.5283 134 9.51786 133.987 9.50421C133.973 9.49056 133.962 9.47404 133.955 9.45582C133.949 9.43761 133.946 9.41813 133.948 9.39878C133.948 9.33522 133.948 9.27165 133.948 9.20809C133.955 8.53359 133.842 8.65189 134.497 8.63247Z" fill="#1A4897"/>
<path d="M133.229 8.63245H133.268C133.798 8.63245 133.741 8.56182 133.745 9.12861C133.745 9.58416 133.766 9.54354 133.335 9.54354C133.17 9.54354 133.004 9.54354 132.838 9.54354C132.819 9.54588 132.8 9.54406 132.782 9.53821C132.764 9.53236 132.747 9.52261 132.733 9.50966C132.719 9.49671 132.708 9.48086 132.701 9.46323C132.694 9.4456 132.691 9.42661 132.692 9.40759C132.692 9.33166 132.692 9.25574 132.692 9.17805C132.701 8.53887 132.595 8.65187 133.229 8.63245Z" fill="#1A4897"/>
<path d="M134.538 7.54656C135.087 7.54656 135 7.4777 135.006 8.06391C135.006 8.46648 135.045 8.45765 134.612 8.45589H134.497C133.843 8.45589 133.953 8.53711 133.942 7.87851C133.942 7.83966 133.942 7.80258 133.942 7.76374C133.942 7.56598 133.96 7.55362 134.165 7.54833C134.28 7.54479 134.395 7.54656 134.538 7.54656Z" fill="#1A4897"/>
</g>
<defs>
<clipPath id="clip0_2_571">
<rect width="138" height="37" fill="white"/>
</clipPath>
</defs>
</svg>
